<?xml version="1.0" encoding="UTF-8"?>
<!-- Generator: Adobe Illustrator 27.4.0, SVG Export Plug-In . SVG Version: 6.00 Build 0) -->
<svg xmlns="http://www.w3.org/2000/svg" xmlns:xlink="http://www.w3.org/1999/xlink" version="1.1" id="Capa_1" x="0px" y="0px" viewBox="0 0 351.4 144.4" style="enable-background:new 0 0 351.4 144.4;" xml:space="preserve"> <style type="text/css"> .st0{fill:url(#SVGID_1_);} .st1{fill:url(#SVGID_00000007393216748413438300000004782771548197202055_);} .st2{fill:#EB7E23;} .st3{fill:#FDE900;} .st4{fill:#069447;} .st5{fill:#E11F26;} .st6{fill:#FDEC3F;} .st7{fill:#BCAC31;} .st8{fill:#AD5F27;} .st9{fill:#F2963C;} .st10{fill:none;} </style> <g> <linearGradient id="SVGID_1_" gradientUnits="userSpaceOnUse" x1="488.0403" y1="21.7728" x2="538.4682" y2="-116.7766" gradientTransform="matrix(1 0 0 -1 -339.3071 -26.6929)"> <stop offset="0.2123" style="stop-color:#74BA7B"/> <stop offset="0.5332" style="stop-color:#74BA7B"/> <stop offset="0.567" style="stop-color:#74BA7B"/> <stop offset="0.648" style="stop-color:#6FB778"/> <stop offset="0.7377" style="stop-color:#62AE70"/> <stop offset="0.8317" style="stop-color:#4C9E62"/> <stop offset="0.9279" style="stop-color:#2D894E"/> <stop offset="1" style="stop-color:#11753C"/> <stop offset="1" style="stop-color:#05723A"/> </linearGradient> <path class="st0" d="M350.3,13.4c-0.6-1.8-1.4-3.5-2.4-5c-0.7-1-1.5-2-2.4-2.8c-0.9-0.9-1.8-1.7-2.8-2.4c-1.5-1-3.2-1.9-5-2.4 s-3.7-0.8-5.7-0.8H19.3c-4,0-7.7,1.2-10.8,3.3c-1,0.7-2,1.5-2.8,2.4C4.8,6.5,4,7.4,3.3,8.4c-1,1.5-1.9,3.2-2.4,5 C0.3,15.2,0,17.1,0,19.1v15.7h4.5V19.1c0-8.2,6.6-14.8,14.8-14.8h312.5c8.2,0,14.8,6.6,14.8,14.8v15.7h4.5V19.1 C351.2,17.1,350.9,15.2,350.3,13.4z"/> <linearGradient id="SVGID_00000124148237179071544160000014172068751663419014_" gradientUnits="userSpaceOnUse" x1="474.9695" y1="-59.705" x2="549.0267" y2="-218.521" gradientTransform="matrix(1 0 0 -1 -339.3071 -26.6929)"> <stop offset="7.821229e-02" style="stop-color:#E54D34"/> <stop offset="7.887781e-02" style="stop-color:#E54D34"/> <stop offset="0.1563" style="stop-color:#C1392A"/> <stop offset="0.2344" style="stop-color:#A52A22"/> <stop offset="0.3125" style="stop-color:#911F1C"/> <stop offset="0.3907" style="stop-color:#851819"/> <stop offset="0.4693" style="stop-color:#811618"/> <stop offset="0.8073" style="stop-color:#811618"/> <stop offset="0.8497" style="stop-color:#89181A"/> <stop offset="1" style="stop-color:#A11E22"/> </linearGradient> <path style="fill:url(#SVGID_00000124148237179071544160000014172068751663419014_);" d="M346.6,125.3c0,8.2-6.6,14.8-14.8,14.8 H19.3c-8.2,0-14.8-6.6-14.8-14.8V108H0.1v17.3c0,10.7,8.6,19.3,19.3,19.3h312.5c10.7,0,19.3-8.6,19.3-19.3V108h-4.5v17.3H346.6z"/> <rect x="4.6" y="91.8" class="st2" width="342" height="16.3"/> <rect x="4.6" y="34.8" class="st3" width="342" height="57"/> <path class="st4" d="M346.6,34.8V19.1c0-8.2-6.6-14.8-14.8-14.8H19.3C11.1,4.4,4.6,11,4.6,19.1v15.7h20.4 C24.9,34.8,346.6,34.8,346.6,34.8z"/> <path class="st5" d="M346.6,108v17.3c0,8.2-6.6,14.8-14.8,14.8H19.3c-8.2,0-14.8-6.6-14.8-14.8V108H346.6z"/> <path d="M123.2,91.7L123.2,91.7h-12.9l0,0C114.6,91.7,118.8,91.7,123.2,91.7z"/> <path d="M259.4,91.7L259.4,91.7h-12.9l0,0C251,91.7,255.3,91.7,259.4,91.7z"/> <polygon points="32.3,91.7 50.2,91.7 50.2,91.7 "/> <rect y="34.8" class="st6" width="4.5" height="57"/> <rect x="346.6" y="34.8" class="st7" width="4.5" height="57"/> <rect x="346.6" y="91.8" class="st8" width="4.5" height="16.3"/> <rect y="91.8" class="st9" width="4.5" height="16.3"/> <path d="M139.5,91.7"/> <path class="st10" d="M340.6,38.2c-1-0.6-2.2-0.9-3.4-0.9c-1.2,0-2.3,0.3-3.4,0.9c-1,0.6-1.9,1.4-2.5,2.5c-0.6,1-0.9,2.2-0.9,3.4 c0,1.2,0.3,2.3,0.9,3.4c0.6,1,1.4,1.9,2.4,2.5c1,0.6,2.2,1,3.4,1c1.2,0,2.3-0.3,3.4-0.9c1-0.6,1.9-1.4,2.5-2.5 c0.6-1,0.9-2.2,0.9-3.4s-0.3-2.3-0.9-3.4C342.4,39.6,341.6,38.7,340.6,38.2z"/> <path class="st10" d="M340.6,38.2c-1-0.6-2.2-0.9-3.4-0.9c-1.2,0-2.3,0.3-3.4,0.9c-1,0.6-1.9,1.4-2.5,2.5c-0.6,1-0.9,2.2-0.9,3.4 c0,1.2,0.3,2.3,0.9,3.4c0.6,1,1.4,1.9,2.4,2.5c1,0.6,2.2,1,3.4,1c1.2,0,2.3-0.3,3.4-0.9c1-0.6,1.9-1.4,2.5-2.5 c0.6-1,0.9-2.2,0.9-3.4s-0.3-2.3-0.9-3.4C342.4,39.6,341.6,38.7,340.6,38.2z"/> <path d="M139.5,91.7c4.3,0,8.4,0,12.5,0H139.5L139.5,91.7z"/> <path class="st10" d="M340.6,38.2c-1-0.6-2.2-0.9-3.4-0.9c-1.2,0-2.3,0.3-3.4,0.9c-1,0.6-1.9,1.4-2.5,2.5c-0.6,1-0.9,2.2-0.9,3.4 c0,1.2,0.3,2.3,0.9,3.4c0.6,1,1.4,1.9,2.4,2.5c1,0.6,2.2,1,3.4,1c1.2,0,2.3-0.3,3.4-0.9c1-0.6,1.9-1.4,2.5-2.5 c0.6-1,0.9-2.2,0.9-3.4s-0.3-2.3-0.9-3.4C342.4,39.6,341.6,38.7,340.6,38.2z"/> <g> <path d="M121.4,91.8L121.4,91.8h-12.9l0,0C112.8,91.8,117,91.8,121.4,91.8z"/> <path d="M278.1,91.8h-6.6C273.7,92.2,276,92.2,278.1,91.8z"/> <path d="M256,91.8L256,91.8h-12.9l0,0C247.5,91.8,251.8,91.8,256,91.8z"/> <polygon points="32.1,91.8 50,91.8 50,91.8 "/> <path d="M137.8,91.8"/> <path d="M137.8,91.8c4.3,0,8.4,0,12.6,0H137.8L137.8,91.8z"/> <path d="M84.2,51.6c-5.7,0.5-10.4,3.4-14,8c-4.6,6-5.6,12.8-4.8,20c0.3,3.1,1.2,5.9,3.7,8.2c2.4,2.2,5,3.4,7.6,3.9 c2.2,0.5,4.4,0.5,6.5,0c2.4-0.5,4.8-1.5,6.8-2.9c0.4-0.3,0.8-0.6,1.5-1c0,1.5,0,2.6,0,3.9h11.1c0-13.6,0-27,0-40.3 C96.4,51.4,90.3,51,84.2,51.6z M92.1,78.6c-0.1,0.8-0.5,1.7-1,2.2c-4.7,4.1-11.8,2.8-14.3-2.5c-0.7-1.5-0.7-3.5-0.6-5.3 c0.6-6.2,5.9-11.4,11.9-12c0.4-0.1,0.7-0.1,1.1-0.1c2.7,0,3,0.3,3,3c0,2.3,0,4.6,0,6.8C92.2,73.3,92.3,76,92.1,78.6z"/> <path d="M226.8,55.4c-0.6-0.3-1.3-0.6-1.9-0.8c-3.9-1.5-8-2.3-12.1-2.7c-1-0.1-12.2-0.5-12.2-0.3c0,13.5,0,26.8,0,40.1 c0,5.4,0,10.9,0,16.3c3.8,0,7.5,0,11.2,0c0.1,0-0.1-14.8,0-16.2l0,0c1.4,0.3,2.7,1.1,4,1.5c1.5,0.5,3,0.9,4.4,1.1 c2.9,0.5,6,0.3,8.7-0.9c2.7-1.2,4.9-3.2,6.4-5.7c1.9-2.9,2.8-6.2,3.4-9.5c0.8-5.3,0.3-10.8-2.8-15.3 C233.7,59.7,230.4,57.2,226.8,55.4z M212.4,63.2c0-2,1-3,3-2.6c5.7,1,11.9,5.4,12.6,12.4c0.4,3.4,0.1,6.4-2,9.3 c-2.9,4.1-11.1,2.4-12.9-0.5c-0.5-0.8-0.7-1.7-0.7-2.6c-0.1-2.6-0.1-5.3-0.1-7.9C212.4,68.6,212.4,65.9,212.4,63.2z"/> <path d="M145.7,99c0,0.6,0,10,0,10.5c6.4-1.4,13.2-2,19-5.4c4.1-2.4,7.4-6.1,9.7-10.2c0.4-0.7,0.8-1.4,1.2-2.1 c5.9-10.6,12-21.3,18.1-31.9c1.5-2.6,3-5.2,4.6-8.1h-12.9c-2.7,4.9-6.1,11-8.9,15.8c-1.4,2.4-2.8,5-4.3,7.7 c-0.3-0.8-0.5-1.3-0.7-1.8c-2.5-6.8-5.5-14.9-8-21.6H150c0.3,0.7,0.5,1.2,0.6,1.7c3.6,9.2,7.2,18.5,10.8,27.7 c1,2.5,1.7,5.3,1.6,8.1c0,2.4-0.8,5-2.6,6.7c-2.3,2.3-5.9,2.8-8.9,3C149.5,99.1,147.6,99,145.7,99z"/> <path d="M285,88.8c0.4-0.3,0.8-0.5,1.4-1c0,1.5,0,2.7,0,3.9c3.8,0,7.5,0,11.1,0c0-13.5,0-27,0-40.5c-0.3-0.1-0.5-0.1-0.7-0.1 c-5,0-10.1-0.3-15.1,0.1c-9.3,0.6-16.2,5.1-19.8,13.8c-2,4.8-2.3,10-1.5,15.1c0.5,2.8,1.3,5.4,3.5,7.5c2.4,2.3,5,3.5,7.7,4.1h6.6 C280.6,91.2,283,90.2,285,88.8z M271,73.1c0.5-6.1,5.8-11.4,11.8-12.1c0.4-0.1,0.7-0.1,1.1-0.1c2.8,0,3.1,0.3,3.1,3.1 c0,2.3,0,4.6,0,6.8c0,2.6,0.1,5.3,0,7.9c0,0.6-0.2,1.3-0.6,1.7c-3.9,3.8-11.9,4.4-14.9-2.3C270.8,76.6,270.9,74.7,271,73.1z"/> <path d="M256,34.8c-4.4,0-8.6,0-12.9,0c0,19.1,0,37.8,0,57H256C256,72.6,256,53.9,256,34.8z"/> <path d="M327.5,84.7c-0.1-0.8-0.3-1.5-0.6-2.3c-1-2.8-2.7-5.2-4.3-7.5c-2.8-4-5.7-7.9-8.4-12c-0.5-0.6-0.9-1.7-0.4-2.6 c0.5-0.7,1.2-1.2,2.4-1c0.5,0.1,1.6,0.5,2.2,0.6c2.6,0.9,5.2,1.8,7.8,2.7c0-3.8,0-7.4,0-11.3c-3.4-0.3-6.5-0.6-9.7-0.8 c-1.6-0.1-3.3,0-5,0.2c-5.4,0.5-9.1,3.5-9.3,8c-0.1,1.9,0.4,4.1,1.4,5.9c1.4,2.6,3.5,5,5.3,7.4c2.1,2.8,4.4,5.4,6.3,8.2 c0.4,0.5,0.6,1.1,0.8,1.7c0.1,0.4,0,0.8-0.2,1.2c-0.3,0.5-0.7,0.7-1.2,0.9c-0.6,0.2-1.2,0.2-1.7,0.1c-0.6-0.1-1-0.1-1.5-0.3 c-2.8-0.7-5.6-1.5-8.4-2.3c-0.7-0.2-1.4-0.4-2.2-0.6c0,3.6,0,7,0,10.6c1.5,0.1,3,0.3,4.4,0.4c4.8,0.2,9.7,0.5,14.5,0.6 c2.2,0,4.4-0.9,5.9-2.5c0.9-1,1.5-2.3,1.8-3.6C327.6,85.9,327.6,85.3,327.5,84.7z"/> <path d="M72.7,41.4c1-2.1,1.9-4.3,2.9-6.6H60.4C56,44.5,51,55.5,46.5,65.1c-1.6,3.5-3.2,7-5,10.9c-0.3-0.7-0.5-1-0.6-1.4 c-5.2-12.8-11-27.1-16.2-39.9H7.2C15.1,53,24,73.4,32,91.7h17.9C57.3,75.5,65.4,57.7,72.7,41.4z"/> <path d="M150.5,74.7c0,0.3,0,0.5,0,0.8C150.5,75.3,150.5,75,150.5,74.7z"/> <path d="M150.4,70c0,1.5,0,3.2,0,4.7C150.5,73.1,150.5,71.5,150.4,70z"/> <path d="M150.5,75.6c0-0.3,0-0.5,0-0.8c0-1.5,0-3.2,0-4.7c0-2.5-0.2-5.1-0.5-7.6c-0.8-6.3-3.8-9.3-10.1-10.1 c-0.5-0.1-0.9-0.1-1.4-0.2c-6.2-0.5-12.1-0.1-16.9,4.4c-0.1,0.1-0.2,0-0.5-0.1c0-1.7,0-3.5,0-5.3c-4.3,0-8.4,0-12.6,0 c0,13.5,0,27,0,40.5h12.9c0-0.8,0-1.3,0-1.9c0-6.7-0.1-13.4,0.1-20.1c0-1.4,0.5-3,1.2-4.3c1.8-3,6.1-4.1,9.8-2.9 c3.5,1,5.3,3.7,5.3,7.5c0,6.6,0,13.3,0,20c0,0.6,0,1.1,0,1.7h12.6h0.1C150.5,86.7,150.5,80.9,150.5,75.6z"/> <path d="M336,44.9h1.1l1.7,3h1.9l-2-3.2c0.5-0.1,0.9-0.4,1.2-0.8c0.3-0.4,0.5-0.8,0.5-1.4c0-0.7-0.3-1.3-0.7-1.7 c-0.5-0.4-1.2-0.6-2.1-0.6h-3.1v7.7h1.7L336,44.9L336,44.9z M336,41.4h1.2c0.5,0,0.8,0.1,1,0.3c0.3,0.2,0.3,0.5,0.3,0.8 c0,0.4-0.1,0.6-0.3,0.9c-0.2,0.2-0.5,0.3-1,0.3h-1.4L336,41.4L336,41.4z"/> <path d="M333.7,49.8c1,0.6,2.2,1,3.4,1c1.2,0,2.3-0.3,3.4-0.9c1-0.6,1.9-1.4,2.5-2.5c0.6-1,0.9-2.2,0.9-3.4s-0.3-2.3-0.9-3.4 c-0.6-1-1.4-1.9-2.5-2.4c-1-0.6-2.2-0.9-3.4-0.9c-1.2,0-2.3,0.3-3.4,0.9c-1,0.6-1.9,1.4-2.5,2.5c-0.6,1-0.9,2.2-0.9,3.4 c0,1.2,0.3,2.3,0.9,3.4C331.8,48.3,332.6,49.2,333.7,49.8z M331.8,40.8c0.6-1,1.4-1.7,2.3-2.3c1-0.5,2-0.8,3-0.8 c1.1,0,2.1,0.3,3.2,0.8c1,0.6,1.7,1.3,2.3,2.3c0.6,1,0.8,2,0.8,3.1c0,1.1-0.3,2.1-0.8,3.1c-0.6,1-1.4,1.7-2.3,2.3s-2,0.8-3.2,0.8 c-1.1,0-2.2-0.3-3.1-0.8c-1-0.6-1.7-1.4-2.3-2.3c-0.6-1-0.8-2-0.8-3.1C330.9,42.9,331.2,41.8,331.8,40.8z"/> </g> </g> </svg>